<svg width="64" height="64" viewBox="0 0 64 64" fill="none" xmlns="http://www.w3.org/2000/svg">
<path d="M43.6267 37.3333C43.84 35.5733 44 33.8133 44 32C44 30.1866 43.84 28.4266 43.6267 26.6666H52.64C53.0667 28.3733 53.3334 30.16 53.3334 32C53.3334 33.84 53.0667 35.6266 52.64 37.3333M38.9067 52.16C40.5067 49.2 41.7334 46 42.5867 42.6666H50.4534C47.8698 47.1154 43.771 50.4853 38.9067 52.16ZM38.24 37.3333H25.76C25.4934 35.5733 25.3334 33.8133 25.3334 32C25.3334 30.1866 25.4934 28.4 25.76 26.6666H38.24C38.48 28.4 38.6667 30.1866 38.6667 32C38.6667 33.8133 38.48 35.5733 38.24 37.3333ZM32 53.2266C29.7867 50.0266 28 46.48 26.9067 42.6666H37.0934C36 46.48 34.2134 50.0266 32 53.2266ZM21.3334 21.3333H13.5467C16.1037 16.8725 20.1995 13.4973 25.0667 11.84C23.4667 14.8 22.2667 18 21.3334 21.3333ZM13.5467 42.6666H21.3334C22.2667 46 23.4667 49.2 25.0667 52.16C20.2097 50.4844 16.1196 47.1139 13.5467 42.6666ZM11.36 37.3333C10.9334 35.6266 10.6667 33.84 10.6667 32C10.6667 30.16 10.9334 28.3733 11.36 26.6666H20.3734C20.16 28.4266 20 30.1866 20 32C20 33.8133 20.16 35.5733 20.3734 37.3333M32 10.7466C34.2134 13.9466 36 17.52 37.0934 21.3333H26.9067C28 17.52 29.7867 13.9466 32 10.7466ZM50.4534 21.3333H42.5867C41.7521 18.0305 40.5162 14.8424 38.9067 11.84C43.8134 13.52 47.8934 16.9066 50.4534 21.3333ZM32 5.33331C17.2534 5.33331 5.33337 17.3333 5.33337 32C5.33337 39.0724 8.14289 45.8552 13.1439 50.8561C15.6201 53.3324 18.5598 55.2966 21.7951 56.6367C25.0305 57.9769 28.4981 58.6666 32 58.6666C39.0725 58.6666 45.8552 55.8571 50.8562 50.8561C55.8572 45.8552 58.6667 39.0724 58.6667 32C58.6667 28.4981 57.9769 25.0304 56.6368 21.7951C55.2967 18.5597 53.3324 15.62 50.8562 13.1438C48.38 10.6676 45.4403 8.70332 42.2049 7.36319C38.9696 6.02307 35.5019 5.33331 32 5.33331Z" fill="white"/>
</svg>
